# xmcd
#
# Track frame offsets:
#	150
#	14362
#	31591
#	49543
#	66113
#	81059
#	98083
#	114980
#	131383
#	146706
#	161945
#	181805
#
# Disc length: 2636 seconds
#
# Revision: 1
# Processed by: cddbd v1.5.2PL0 Copyright (c) Steve Scherf et al.
# Submitted via: EZCDAudioConverter 8.2.2.1
#
DISCID=910a4a0c
DTITLE=Hallur - Cozy Cowboy
DYEAR=2015
DGENRE=Traditional Country
TTITLE0=Hallur - The Richest Man Alive
TTITLE1=Hallur - Restless Heart
TTITLE2=Deanna Barry - Love Don't Live Here Anymore (Featuring Deana Barry)
TTITLE3=Hallur - Never Another You
TTITLE4=Hallur - I Love You More Every Day
TTITLE5=Hallur - I'm Heading Home
TTITLE6=Hallur - Inevitable to Me
TTITLE7=Hallur - Love After Life After All
TTITLE8=Hallur - Why Should I Cry
TTITLE9=Hallur - Friday Ain't the Same
TTITLE10=Hallur - It Rains Just the Same in Missouri
TTITLE11=Hallur and Jessica Hallurdóttir - End Of The World 
EXTD=
EXTT0=
EXTT1=
EXTT2=
EXTT3=
EXTT4=
EXTT5=
EXTT6=
EXTT7=
EXTT8=
EXTT9=
EXTT10=
EXTT11=
PLAYORDER=
